<svg width="24" height="20" viewBox="0 0 24 20" fill="none" xmlns="http://www.w3.org/2000/svg">
<path d="M12 5.5C12.7857 2.53938 15.7533 1.02766 22.2143 1.00001C22.3176 0.999633 22.4199 1.01878 22.5154 1.05634C22.6109 1.0939 22.6977 1.14913 22.7707 1.21885C22.8438 1.28856 22.9016 1.37139 22.941 1.46255C22.9803 1.55372 23.0004 1.65141 23 1.75001V15.25C23 15.4489 22.9172 15.6397 22.7699 15.7803C22.6225 15.921 22.4227 16 22.2143 16C15.9286 16 13.5002 17.2098 12 19M12 5.5C11.2143 2.53938 8.24674 1.02766 1.78572 1.00001C1.68243 0.999633 1.58008 1.01878 1.48458 1.05634C1.38908 1.0939 1.30231 1.14913 1.22927 1.21885C1.15623 1.28856 1.09837 1.37139 1.05902 1.46255C1.01967 1.55372 0.999616 1.65141 1.00001 1.75001V15.1595C1.00001 15.6227 1.30054 16 1.78572 16C8.07143 16 10.5086 17.2188 12 19M12 5.5V19" stroke="white" stroke-width="2" stroke-linecap="round" stroke-linejoin="round"/>
</svg>
