<svg width="25" height="23" viewBox="0 0 25 23" fill="none" xmlns="http://www.w3.org/2000/svg">
<path d="M4.18437 16.781C4.34656 16.9415 4.47083 17.1353 4.54835 17.3486C4.62586 17.5618 4.6547 17.7893 4.63281 18.0149C4.523 19.0586 4.31481 20.09 4.01094 21.0956C6.19062 20.5981 7.52188 20.022 8.12656 19.7201C8.46954 19.5488 8.86451 19.5082 9.23594 19.6061C10.3007 19.8859 11.3981 20.0268 12.5 20.0251C18.7438 20.0251 23.4375 15.7012 23.4375 10.7827C23.4375 5.86581 18.7438 1.54039 12.5 1.54039C6.25625 1.54039 1.5625 5.86581 1.5625 10.7827C1.5625 13.044 2.52656 15.142 4.18437 16.781ZM3.41406 22.7962C3.04386 22.8686 2.67245 22.9348 2.3 22.9949C1.9875 23.0442 1.75 22.7238 1.87344 22.4373C2.01217 22.1148 2.13934 21.7875 2.25469 21.4561L2.25937 21.4407C2.64687 20.3316 2.9625 19.0562 3.07813 17.8685C1.16094 15.9738 0 13.4938 0 10.7827C0 4.82758 5.59687 0 12.5 0C19.4031 0 25 4.82758 25 10.7827C25 16.7379 19.4031 21.5655 12.5 21.5655C11.262 21.5671 10.029 21.4086 8.83281 21.0941C8.02031 21.4992 6.27187 22.2371 3.41406 22.7962Z" fill="white"/>
</svg>
