<svg width="18" height="24" viewBox="0 0 18 24" fill="none" xmlns="http://www.w3.org/2000/svg">
<path d="M3 4.5C3 4.10218 3.15804 3.72064 3.43934 3.43934C3.72064 3.15804 4.10218 3 4.5 3H13.5C13.8978 3 14.2794 3.15804 14.5607 3.43934C14.842 3.72064 15 4.10218 15 4.5V6C15 6.39782 14.842 6.77936 14.5607 7.06066C14.2794 7.34196 13.8978 7.5 13.5 7.5H4.5C4.10218 7.5 3.72064 7.34196 3.43934 7.06066C3.15804 6.77936 3 6.39782 3 6V4.5ZM4.5 4.5V6H13.5V4.5H4.5ZM0 3V21C0 21.7956 0.31607 22.5587 0.87868 23.1213C1.44129 23.6839 2.20435 24 3 24H17.25C17.4489 24 17.6397 23.921 17.7803 23.7803C17.921 23.6397 18 23.4489 18 23.25C18 23.0511 17.921 22.8603 17.7803 22.7197C17.6397 22.579 17.4489 22.5 17.25 22.5H3C2.60218 22.5 2.22064 22.342 1.93934 22.0607C1.65804 21.7794 1.5 21.3978 1.5 21H16.5C16.8978 21 17.2794 20.842 17.5607 20.5607C17.842 20.2794 18 19.8978 18 19.5V3C18 2.20435 17.6839 1.44129 17.1213 0.87868C16.5587 0.31607 15.7956 0 15 0H3C2.20435 0 1.44129 0.31607 0.87868 0.87868C0.31607 1.44129 0 2.20435 0 3ZM15 1.5C15.3978 1.5 15.7794 1.65804 16.0607 1.93934C16.342 2.22064 16.5 2.60218 16.5 3V19.5H1.5V3C1.5 2.60218 1.65804 2.22064 1.93934 1.93934C2.22064 1.65804 2.60218 1.5 3 1.5H15Z" fill="white"/>
</svg>
