<svg width="22" height="22" viewBox="0 0 22 22" fill="none" xmlns="http://www.w3.org/2000/svg">
<path d="M20.8473 1.15265C20.1092 0.414621 19.1081 0 18.0643 0C17.0205 0 16.0195 0.414621 15.2814 1.15265L2.13436 14.2989C1.68754 14.7457 1.3734 15.3077 1.22687 15.9223L0.0223908 20.9842C-0.0102219 21.1213 -0.00716426 21.2644 0.0312724 21.4C0.069709 21.5356 0.142243 21.6591 0.241956 21.7587C0.34167 21.8583 0.465238 21.9307 0.600876 21.969C0.736514 22.0073 0.879699 22.0102 1.01678 21.9774L6.0778 20.7719C6.6929 20.6256 7.25532 20.3114 7.70248 19.8645L20.8473 6.72044C21.5854 5.98239 22 4.98139 22 3.93764C22 2.8939 21.5854 1.8929 20.8473 1.15485V1.15265ZM16.4473 2.31857C16.6597 2.10623 16.9118 1.9378 17.1892 1.82289C17.4667 1.70798 17.764 1.64883 18.0643 1.64883C18.3646 1.64883 18.662 1.70798 18.9394 1.82289C19.2169 1.9378 19.469 2.10623 19.6813 2.31857C19.8936 2.5309 20.0621 2.78297 20.177 3.0604C20.2919 3.33782 20.3511 3.63516 20.3511 3.93544C20.3511 4.23573 20.2919 4.53307 20.177 4.81049C20.0621 5.08792 19.8936 5.33999 19.6813 5.55232L18.7001 6.53235L15.4662 3.29969L16.4473 2.31967V2.31857ZM14.3002 4.4678L17.5341 7.69936L6.53429 18.6985C6.3033 18.9295 6.0129 19.0912 5.69501 19.1671L1.93746 20.0624L2.83175 16.3051C2.90765 15.9861 3.07045 15.6958 3.30144 15.4648L14.3002 4.46561V4.4678Z" fill="white"/>
</svg>
