<svg width="1000" height="1000" viewBox="0 0 1000 1000" fill="none" xmlns="http://www.w3.org/2000/svg">
<rect width="1000" height="1000" fill="#97A1FF"/>
<path d="M0 24H956C967.046 24 976 32.9543 976 44V956C976 967.046 967.046 976 956 976H0V24Z" fill="url(#paint0_linear_442_1021)"/>
<path d="M460.46 508.57C459.947 508.71 459.41 508.78 458.85 508.78C458.57 508.78 458.197 508.757 457.73 508.71C457.31 508.663 456.843 508.617 456.33 508.57C455.863 508.523 455.373 508.477 454.86 508.43C454.393 508.383 453.997 508.36 453.67 508.36C453.67 508.407 453.227 508.407 452.34 508.36C451.5 508.267 450.217 508.22 448.49 508.22C447.323 508.22 446.6 508.36 446.32 508.64C445.433 508.687 444.337 508.757 443.03 508.85C441.77 508.943 440.3 509.037 438.62 509.13C436.94 508.99 436.1 508.267 436.1 506.96C436.1 506.493 436.147 506.073 436.24 505.7C436.333 505.327 436.637 505.023 437.15 504.79C437.663 504.557 438.457 504.37 439.53 504.23C440.65 504.09 442.19 503.997 444.15 503.95C444.383 503.95 444.64 503.973 444.92 504.02C445.247 504.02 445.597 504.02 445.97 504.02C447.837 504.02 450.357 503.95 453.53 503.81C454.463 503.857 455.443 503.927 456.47 504.02C457.543 504.113 458.687 504.23 459.9 504.37C460.787 505.07 461.23 505.863 461.23 506.75C461.23 507.357 460.973 507.963 460.46 508.57ZM495.468 524.95C496.262 524.95 497.008 524.95 497.708 524.95C498.455 524.95 499.132 524.927 499.738 524.88C500.205 524.787 500.812 524.693 501.558 524.6C502.352 524.507 503.238 524.46 504.218 524.46C505.198 524.46 505.992 524.53 506.598 524.67C507.205 524.81 507.508 525.23 507.508 525.93C507.508 526.443 507.392 526.933 507.158 527.4C506.972 527.867 506.832 528.217 506.738 528.45C506.272 528.59 505.688 528.707 504.988 528.8C504.335 528.893 503.658 528.963 502.958 529.01C502.305 529.103 501.675 529.173 501.068 529.22C500.462 529.313 499.995 529.407 499.668 529.5C499.435 529.453 499.202 529.407 498.968 529.36C498.735 529.36 498.455 529.36 498.128 529.36C497.755 529.36 497.335 529.36 496.868 529.36C496.402 529.407 495.935 529.43 495.468 529.43C495.422 530.037 495.375 530.713 495.328 531.46C495.328 532.207 495.328 533.047 495.328 533.98C495.328 535.8 495.375 536.897 495.468 537.27H495.958C496.612 537.27 497.405 537.34 498.338 537.48C499.272 537.667 500.275 537.76 501.348 537.76C501.955 537.76 502.538 537.737 503.098 537.69C503.705 537.643 504.265 537.62 504.778 537.62C505.012 537.62 505.222 537.62 505.408 537.62C505.595 537.62 505.782 537.643 505.968 537.69C506.342 537.643 506.878 537.55 507.578 537.41C508.278 537.27 508.908 537.2 509.468 537.2C509.702 537.34 510.005 537.597 510.378 537.97C510.752 538.39 510.938 538.833 510.938 539.3C510.938 539.907 510.588 540.583 509.888 541.33C508.908 541.423 507.882 541.657 506.808 542.03C505.735 542.403 504.545 542.59 503.238 542.59C502.025 542.59 500.602 542.427 498.968 542.1C498.782 542.147 498.618 542.17 498.478 542.17C498.338 542.217 498.175 542.24 497.988 542.24C497.475 542.24 496.938 542.17 496.378 542.03C495.865 541.937 495.305 541.867 494.698 541.82C494.605 541.867 494.465 541.89 494.278 541.89C493.298 541.89 492.482 541.54 491.828 540.84C491.175 540.14 490.848 539.253 490.848 538.18C490.848 536.733 490.918 534.96 491.058 532.86C491.245 530.76 491.338 528.683 491.338 526.63C491.338 525.837 491.268 525.183 491.128 524.67C490.988 524.11 490.918 523.363 490.918 522.43C490.918 521.823 490.965 521.147 491.058 520.4C491.198 519.653 491.338 518.953 491.478 518.3C491.618 517.647 491.735 517.087 491.828 516.62C491.968 516.153 492.038 515.897 492.038 515.85C492.692 515.477 493.485 515.267 494.418 515.22C495.352 515.127 496.122 514.94 496.728 514.66C497.475 514.66 498.012 514.66 498.338 514.66C498.712 514.613 498.992 514.567 499.178 514.52C499.365 514.473 499.505 514.427 499.598 514.38C499.738 514.287 499.948 514.193 500.228 514.1C500.602 514.193 501.045 514.24 501.558 514.24C501.838 514.24 502.142 514.24 502.468 514.24C502.795 514.193 503.168 514.147 503.588 514.1L506.528 513.75C507.602 513.797 508.138 514.707 508.138 516.48C508.138 517.507 507.858 518.16 507.298 518.44C505.432 518.627 503.635 518.813 501.908 519C500.182 519.14 498.222 519.373 496.028 519.7C495.935 520.12 495.818 520.843 495.678 521.87C495.585 522.85 495.515 523.877 495.468 524.95ZM519.898 503.74C520.505 504.16 520.808 504.837 520.808 505.77C520.808 506.377 520.668 506.913 520.388 507.38C520.108 507.847 519.642 508.08 518.988 508.08C518.615 508.08 517.962 508.033 517.028 507.94C516.142 507.8 515.162 507.683 514.088 507.59C513.062 507.45 512.035 507.333 511.008 507.24C510.028 507.1 509.305 507.03 508.838 507.03C508.885 507.03 508.372 507.007 507.298 506.96C506.225 506.913 504.988 506.867 503.588 506.82C502.188 506.727 500.812 506.657 499.458 506.61C498.105 506.563 497.148 506.54 496.588 506.54H495.678C495.538 506.493 495.025 506.47 494.138 506.47C493.672 506.47 493.042 506.493 492.248 506.54C491.455 506.54 490.662 506.563 489.868 506.61C489.075 506.61 488.328 506.633 487.628 506.68C486.928 506.68 486.462 506.68 486.228 506.68C485.762 506.68 485.458 506.657 485.318 506.61C485.225 506.563 485.015 506.54 484.688 506.54C484.222 506.54 483.545 506.61 482.658 506.75C481.772 506.843 481.048 506.89 480.488 506.89C479.695 506.89 478.972 506.68 478.318 506.26C477.665 505.84 477.338 505.07 477.338 503.95C477.338 503.623 477.362 503.32 477.408 503.04C477.502 502.76 477.758 502.527 478.178 502.34C478.598 502.153 479.252 502.013 480.138 501.92C481.072 501.827 482.378 501.78 484.058 501.78C484.992 501.78 485.598 501.85 485.878 501.99C486.158 501.943 486.508 501.92 486.928 501.92C487.395 501.873 487.955 501.85 488.608 501.85C490.102 501.85 491.268 501.873 492.108 501.92C492.995 501.92 493.532 501.92 493.718 501.92C493.858 501.92 494.045 501.92 494.278 501.92C494.512 501.873 494.768 501.85 495.048 501.85C495.608 501.85 496.192 501.873 496.798 501.92C497.405 501.92 497.965 501.943 498.478 501.99C499.038 502.037 499.505 502.083 499.878 502.13C500.252 502.177 500.508 502.223 500.648 502.27C500.882 502.223 501.535 502.2 502.608 502.2C503.822 502.2 504.778 502.223 505.478 502.27C506.178 502.27 506.645 502.27 506.878 502.27C507.952 502.363 508.932 502.433 509.818 502.48C510.612 502.573 511.358 502.643 512.058 502.69C512.758 502.69 513.225 502.737 513.458 502.83H513.948C514.322 502.783 514.718 502.807 515.138 502.9C515.605 502.993 516.142 503.087 516.748 503.18L519.898 503.74ZM511.568 481.62V484C511.568 484.513 511.545 485.027 511.498 485.54C511.498 486.007 511.452 486.403 511.358 486.73V487.64C511.358 488.667 511.195 489.763 510.868 490.93C510.868 491.023 510.868 491.117 510.868 491.21C510.915 491.303 510.938 491.397 510.938 491.49C510.938 492.097 510.822 492.75 510.588 493.45C510.402 494.103 510.262 494.663 510.168 495.13C509.188 495.55 508.442 495.76 507.928 495.76C507.415 495.76 506.995 495.643 506.668 495.41C506.388 495.13 506.062 494.803 505.688 494.43C505.688 493.637 505.735 492.937 505.828 492.33C505.968 491.677 506.108 491.093 506.248 490.58C506.388 490.02 506.505 489.483 506.598 488.97C506.738 488.457 506.808 487.873 506.808 487.22C506.808 487.033 506.785 486.847 506.738 486.66C506.738 486.473 506.738 486.263 506.738 486.03C506.738 485.563 506.785 485.12 506.878 484.7C506.972 484.233 507.018 483.813 507.018 483.44C507.018 482.973 506.902 482.553 506.668 482.18C506.808 482.18 506.645 482.157 506.178 482.11C505.712 482.063 505.128 482.017 504.428 481.97C503.775 481.877 503.098 481.807 502.398 481.76C501.698 481.713 501.208 481.69 500.928 481.69H500.368C500.275 483.323 499.878 484.933 499.178 486.52C498.525 488.107 497.825 489.553 497.078 490.86C496.985 491.14 496.822 491.467 496.588 491.84C496.355 492.213 496.075 492.587 495.748 492.96C495.468 493.333 495.188 493.683 494.908 494.01C494.628 494.337 494.418 494.64 494.278 494.92C493.485 495.153 492.902 495.27 492.528 495.27C491.875 495.27 491.408 495.013 491.128 494.5C490.848 493.987 490.638 493.473 490.498 492.96C490.825 492.307 491.268 491.537 491.828 490.65C492.435 489.763 492.995 488.83 493.508 487.85C494.068 486.87 494.535 485.89 494.908 484.91C495.328 483.93 495.538 483.02 495.538 482.18C495.538 481.947 495.142 481.76 494.348 481.62C493.602 481.48 492.178 481.41 490.078 481.41H489.728C489.355 481.41 488.935 481.41 488.468 481.41C488.002 481.363 487.558 481.293 487.138 481.2C486.718 481.06 486.368 480.85 486.088 480.57C485.808 480.29 485.668 479.87 485.668 479.31C485.668 478.983 485.762 478.657 485.948 478.33C486.182 477.957 486.345 477.677 486.438 477.49C486.578 477.257 486.742 477.093 486.928 477C487.115 476.907 487.348 476.86 487.628 476.86C487.908 476.86 488.305 476.86 488.818 476.86C489.425 476.86 490.125 476.86 490.918 476.86C491.758 476.86 492.505 476.93 493.158 477.07C493.252 477.07 493.625 477.07 494.278 477.07C494.932 477.023 495.795 477 496.868 477C498.502 477 499.855 477.07 500.928 477.21C502.002 477.35 503.285 477.49 504.778 477.63C505.012 477.583 505.245 477.56 505.478 477.56C505.712 477.513 505.968 477.49 506.248 477.49C507.042 477.49 507.858 477.583 508.698 477.77C509.585 477.91 510.308 478.143 510.868 478.47C511.242 478.983 511.452 479.52 511.498 480.08C511.545 480.593 511.568 481.107 511.568 481.62ZM561.29 508.57C560.777 508.71 560.24 508.78 559.68 508.78C559.4 508.78 559.027 508.757 558.56 508.71C558.14 508.663 557.673 508.617 557.16 508.57C556.693 508.523 556.203 508.477 555.69 508.43C555.223 508.383 554.827 508.36 554.5 508.36C554.5 508.407 554.057 508.407 553.17 508.36C552.33 508.267 551.047 508.22 549.32 508.22C548.153 508.22 547.43 508.36 547.15 508.64C546.263 508.687 545.167 508.757 543.86 508.85C542.6 508.943 541.13 509.037 539.45 509.13C537.77 508.99 536.93 508.267 536.93 506.96C536.93 506.493 536.977 506.073 537.07 505.7C537.163 505.327 537.467 505.023 537.98 504.79C538.493 504.557 539.287 504.37 540.36 504.23C541.48 504.09 543.02 503.997 544.98 503.95C545.213 503.95 545.47 503.973 545.75 504.02C546.077 504.02 546.427 504.02 546.8 504.02C548.667 504.02 551.187 503.95 554.36 503.81C555.293 503.857 556.273 503.927 557.3 504.02C558.373 504.113 559.517 504.23 560.73 504.37C561.617 505.07 562.06 505.863 562.06 506.75C562.06 507.357 561.803 507.963 561.29 508.57Z" fill="black"/>
<defs>
<linearGradient id="paint0_linear_442_1021" x1="160.5" y1="24" x2="832" y2="976" gradientUnits="userSpaceOnUse">
<stop stop-color="#F0F0F0"/>
<stop offset="1" stop-color="#E3E3E3"/>
</linearGradient>
</defs>
</svg>
