<svg width="1000" height="1000" viewBox="0 0 1000 1000" fill="none" xmlns="http://www.w3.org/2000/svg">
<rect width="1000" height="1000" fill="#78B9FF"/>
<path d="M0 32H948C959.046 32 968 40.9543 968 52V948C968 959.046 959.046 968 948 968H0V32Z" fill="white"/>
<path d="M474.352 500.949V505.636H455.261V500.949H474.352ZM481.538 493.32H530.738V497.34H481.538V493.32ZM486.098 474.54H500.498V478.56H486.098V474.54ZM498.818 474.54H503.678V476.1C503.678 479.1 503.678 485.76 501.158 494.82L496.298 494.22C498.818 485.22 498.818 479.22 498.818 476.1V474.54ZM507.338 474.54H521.978V478.56H507.338V474.54ZM519.758 474.54H524.618V476.88C524.618 480.42 524.618 486.6 522.458 495.06L517.598 494.34C519.758 486.06 519.758 480.36 519.758 476.88V474.54ZM487.718 503.04H524.738V506.88H492.698V523.14H487.718V503.04ZM487.718 522.12H525.098V525.96H487.718V522.12ZM490.598 512.52H523.358V516.24H490.598V512.52ZM557.145 500.949V505.636H538.054V500.949H557.145Z" fill="#353535"/>
</svg>
