<svg width="26" height="29" viewBox="0 0 26 29" fill="none" xmlns="http://www.w3.org/2000/svg">
<path fill-rule="evenodd" clip-rule="evenodd" d="M13.6031 12.1027C17.8308 8.50235 23.1903 8.02407 24.5346 9.32875C24.8958 9.67932 25.6337 10.816 25.8464 11.9589C22.5825 12.5342 20.9453 14.1575 19.1921 17.6918C17.906 20.2844 16.3015 21.1411 15.0295 21.8202L15.0294 21.8202L15.0293 21.8203C14.7791 21.9539 14.5418 22.0806 14.3223 22.2123C14.3223 22.9999 14.0205 24.2866 13.321 25.4618C13.0897 25.8502 12.8151 26.2265 12.4935 26.5685C11.4698 27.6572 9.64884 28.2575 8.5652 28.4615C8.529 28.4683 8.50375 28.4279 8.52602 28.3986C8.61491 28.2814 8.71346 28.1628 8.81777 28.0373L8.81783 28.0373L8.81786 28.0372C9.28316 27.4773 9.86312 26.7794 10.2127 25.4589C10.2625 25.2705 10.2902 25.065 10.2995 24.8512C10.343 23.8586 9.99234 22.6856 9.63733 22.2123C8.13733 21.9246 5.56884 20.4246 4.27432 19.0685C3.07973 17.817 2.62225 16.558 2.5072 16.1349C2.18524 14.5655 2.31032 13.2657 2.5072 12.2466C2.7058 11.2185 3.38711 9.97121 3.96948 8.90506C4.41141 8.09602 4.79637 7.39127 4.87021 6.96574C3.66856 6.63543 3.29344 5.50209 2.96602 4.51285C2.82498 4.08673 2.69279 3.68735 2.5072 3.3904C2.03792 2.63956 1.25853 1.84158 0.877271 1.48869C0.853445 1.46664 0.863095 1.42728 0.894548 1.41924C1.27933 1.32086 1.91201 1.20942 2.56416 1.20268C2.62194 1.20209 2.67987 1.20231 2.7378 1.20344C3.19403 1.21233 3.64989 1.2773 4.02774 1.43835C5.03048 1.86575 5.87021 2.9178 6.16473 3.3904C6.3976 3.15068 7.1839 2.60136 8.46609 2.32191C9.62814 2.06864 11.463 2.7639 12.4595 3.24823C12.5028 3.26925 12.4772 3.35048 12.4292 3.34712C11.9454 3.31324 11.1615 3.386 10.4181 3.84246C10.0246 4.08409 9.78652 4.52289 9.52432 5.0061C9.00612 5.96108 8.39379 7.08952 6.30166 7.21232C6.24289 7.49883 6.16096 7.79831 6.07643 8.10732C5.73391 9.3594 5.34862 10.7678 6.28801 12.1027C7.45925 13.7671 10.4181 14.8151 13.6031 12.1027Z" fill="#54A7FF"/>
<path d="M19.6442 23.9383C25.4188 20.6473 26.4566 15.2374 25.8464 11.9589C22.5825 12.5342 20.9453 14.1575 19.1921 17.6918C17.906 20.2844 16.3015 21.1411 15.0295 21.8202L15.0294 21.8202L15.0293 21.8203C14.7791 21.9539 14.5418 22.0806 14.3223 22.2123C14.3223 22.9999 14.0205 24.2866 13.321 25.4618C15.3199 25.5872 17.4766 25.1737 19.6442 23.9383Z" fill="#E8E8E8"/>
<path d="M9.63733 22.2123C8.13733 21.9246 5.56884 20.4246 4.27432 19.0685C3.07973 17.817 2.62225 16.558 2.5072 16.1349C2.75648 17.3501 3.27376 18.7269 4.23322 20.2603C5.33693 22.0241 7.53839 23.9001 10.2995 24.8512C10.343 23.8586 9.99234 22.6856 9.63733 22.2123Z" fill="#E8E8E8"/>
<circle cx="18.7394" cy="14.4658" r="0.575342" fill="#4A4A4A"/>
<circle cx="17.9174" cy="1.23288" r="1.23288" fill="#BEDDFF"/>
<circle cx="17.9174" cy="1.23288" r="1.23288" stroke="black"/>
<path d="M1.64383 22.2328C1.64383 22.6868 1.27585 23.0548 0.821917 23.0548C0.367985 23.0548 0 22.6868 0 22.2328C0 21.7789 0.367985 21.4109 0.821917 21.4109C1.27585 21.4109 1.64383 21.7789 1.64383 22.2328Z" fill="#BEDDFF"/>
<path d="M1.64383 22.2328C1.64383 22.6868 1.27585 23.0548 0.821917 23.0548C0.367985 23.0548 0 22.6868 0 22.2328C0 21.7789 0.367985 21.4109 0.821917 21.4109C1.27585 21.4109 1.64383 21.7789 1.64383 22.2328Z" stroke="black"/>
<path d="M24.9859 24.863C24.9859 25.4304 24.526 25.8904 23.9585 25.8904C23.3911 25.8904 22.9312 25.4304 22.9312 24.863C22.9312 24.2956 23.3911 23.8356 23.9585 23.8356C24.526 23.8356 24.9859 24.2956 24.9859 24.863Z" fill="#BEDDFF"/>
<path d="M24.9859 24.863C24.9859 25.4304 24.526 25.8904 23.9585 25.8904C23.3911 25.8904 22.9312 25.4304 22.9312 24.863C22.9312 24.2956 23.3911 23.8356 23.9585 23.8356C24.526 23.8356 24.9859 24.2956 24.9859 24.863Z" stroke="black"/>
<path d="M6.24634 26.0958C6.24634 26.8902 5.60237 27.5342 4.80798 27.5342C4.0136 27.5342 3.36963 26.8902 3.36963 26.0958C3.36963 25.3014 4.0136 24.6575 4.80798 24.6575C5.60237 24.6575 6.24634 25.3014 6.24634 26.0958Z" fill="#BEDDFF"/>
<path d="M6.24634 26.0958C6.24634 26.8902 5.60237 27.5342 4.80798 27.5342C4.0136 27.5342 3.36963 26.8902 3.36963 26.0958C3.36963 25.3014 4.0136 24.6575 4.80798 24.6575C5.60237 24.6575 6.24634 25.3014 6.24634 26.0958Z" stroke="black"/>
<path d="M17.5066 6.32875C17.5066 7.46358 16.5866 8.38354 15.4518 8.38354C14.3169 8.38354 13.397 7.46358 13.397 6.32875C13.397 5.19392 14.3169 4.27396 15.4518 4.27396C16.5866 4.27396 17.5066 5.19392 17.5066 6.32875Z" fill="#BEDDFF"/>
<path d="M17.5066 6.32875C17.5066 7.46358 16.5866 8.38354 15.4518 8.38354C14.3169 8.38354 13.397 7.46358 13.397 6.32875C13.397 5.19392 14.3169 4.27396 15.4518 4.27396C16.5866 4.27396 17.5066 5.19392 17.5066 6.32875Z" stroke="black"/>
<path d="M22.9314 5.50685C22.9314 5.96079 22.5634 6.32877 22.1095 6.32877C21.6556 6.32877 21.2876 5.96079 21.2876 5.50685C21.2876 5.05292 21.6556 4.68494 22.1095 4.68494C22.5634 4.68494 22.9314 5.05292 22.9314 5.50685Z" fill="#BEDDFF"/>
<path d="M22.9314 5.50685C22.9314 5.96079 22.5634 6.32877 22.1095 6.32877C21.6556 6.32877 21.2876 5.96079 21.2876 5.50685C21.2876 5.05292 21.6556 4.68494 22.1095 4.68494C22.5634 4.68494 22.9314 5.05292 22.9314 5.50685Z" stroke="black"/>
</svg>
