<svg width="633" height="693" viewBox="0 0 633 693" fill="none" xmlns="http://www.w3.org/2000/svg">
<path fill-rule="evenodd" clip-rule="evenodd" d="M331 294.5C433.874 206.891 564.291 195.253 597 227C605.789 235.53 623.745 263.189 628.921 291C549.5 305 509.661 344.5 467 430.5C435.704 493.588 396.662 514.433 365.709 530.959L365.707 530.96L365.705 530.961C359.617 534.212 353.842 537.295 348.5 540.5C348.5 559.665 341.157 590.975 324.135 619.571C318.509 629.023 311.825 638.178 304 646.5C279.089 672.992 234.78 687.601 208.412 692.564C207.531 692.73 206.916 691.746 207.458 691.032C209.621 688.182 212.019 685.297 214.558 682.242L214.559 682.241L214.56 682.24C225.882 668.615 239.994 651.633 248.5 619.5C249.713 614.917 250.386 609.917 250.614 604.712C251.671 580.56 243.139 552.018 234.5 540.5C198 533.5 135.5 497 104 464C74.9317 433.547 63.7997 402.911 61 392.617C53.1658 354.427 56.2093 322.799 61 298C65.8327 272.983 82.4112 242.633 96.5824 216.69C107.336 197.003 116.703 179.855 118.5 169.5C89.2598 161.462 80.1319 133.884 72.1646 109.813C68.7327 99.444 65.516 89.7257 61 82.5C49.5809 64.2295 30.6159 44.812 21.3385 36.2249C20.7587 35.6883 20.9935 34.7307 21.7589 34.535C31.122 32.1411 46.5173 29.4293 62.3861 29.2654C63.7921 29.2509 65.2018 29.2564 66.6113 29.2839C77.713 29.5003 88.8055 31.081 98 35C122.4 45.4 142.833 71 150 82.5C155.667 76.6667 174.8 63.3 206 56.5C234.277 50.3372 278.926 67.2551 303.174 79.0404C304.227 79.552 303.603 81.5286 302.435 81.4468C290.664 80.6223 271.589 82.3929 253.5 93.5C243.924 99.3798 238.131 110.057 231.75 121.815C219.141 145.053 204.241 172.512 153.332 175.5C151.902 182.472 149.908 189.759 147.851 197.278C139.517 227.746 130.141 262.017 153 294.5C181.5 335 253.5 360.5 331 294.5Z" fill="#54A7FF"/>
<path d="M478 582.5C618.515 502.418 643.769 370.778 628.921 291C549.5 305 509.661 344.5 467 430.5C435.704 493.588 396.662 514.433 365.709 530.959L365.707 530.96L365.705 530.961C359.617 534.212 353.842 537.295 348.5 540.5C348.5 559.665 341.157 590.975 324.135 619.571C372.777 622.622 425.256 612.56 478 582.5Z" fill="#E8E8E8"/>
<path d="M234.5 540.5C198 533.5 135.5 497 104 464C74.9317 433.547 63.7997 402.911 61 392.617C67.0659 422.186 79.6531 455.689 103 493C129.857 535.921 183.426 581.57 250.614 604.712C251.671 580.56 243.139 552.018 234.5 540.5Z" fill="#E8E8E8"/>
<circle cx="456" cy="352" r="7" stroke="#4A4A4A" stroke-width="14"/>
<circle cx="436" cy="30" r="30" fill="#BEDDFF"/>
<circle cx="436" cy="30" r="30" stroke="black"/>
<circle cx="20" cy="541" r="20" fill="#BEDDFF"/>
<circle cx="20" cy="541" r="20" stroke="black"/>
<circle cx="583" cy="605" r="25" fill="#BEDDFF"/>
<circle cx="583" cy="605" r="25" stroke="black"/>
<circle cx="117" cy="635" r="35" fill="#BEDDFF"/>
<circle cx="117" cy="635" r="35" stroke="black"/>
<circle cx="376" cy="154" r="50" fill="#BEDDFF"/>
<circle cx="376" cy="154" r="50" stroke="black"/>
<circle cx="538" cy="134" r="20" fill="#BEDDFF"/>
<circle cx="538" cy="134" r="20" stroke="black"/>
</svg>
