<svg width="16" height="25" viewBox="0 0 16 25" fill="none" xmlns="http://www.w3.org/2000/svg">
<path d="M1 4.28571C1 3.41429 1.21071 2.57855 1.58579 1.96236C1.96086 1.34617 2.46957 1 3 1H4C4.53043 1 5.03914 1.34617 5.41421 1.96236C5.78929 2.57855 6 3.41429 6 4.28571V20.7143C6 21.5857 5.78929 22.4214 5.41421 23.0376C5.03914 23.6538 4.53043 24 4 24H3C2.46957 24 1.96086 23.6538 1.58579 23.0376C1.21071 22.4214 1 21.5857 1 20.7143V4.28571ZM10 4.28571C10 3.41429 10.2107 2.57855 10.5858 1.96236C10.9609 1.34617 11.4696 1 12 1H13C13.5304 1 14.0391 1.34617 14.4142 1.96236C14.7893 2.57855 15 3.41429 15 4.28571V20.7143C15 21.5857 14.7893 22.4214 14.4142 23.0376C14.0391 23.6538 13.5304 24 13 24H12C11.4696 24 10.9609 23.6538 10.5858 23.0376C10.2107 22.4214 10 21.5857 10 20.7143V4.28571Z" stroke="white" stroke-width="1.66667" stroke-linejoin="round"/>
</svg>
