<svg width="30" height="30" viewBox="0 0 30 30" fill="none" xmlns="http://www.w3.org/2000/svg">
<path d="M26.19 3.81005C25.3512 2.97132 24.2136 2.50012 23.0275 2.50012C21.8413 2.50012 20.7037 2.97132 19.865 3.81005L4.92496 18.7501C4.4172 19.2578 4.06022 19.8965 3.89371 20.5951L2.52496 26.3476C2.4879 26.5034 2.49137 26.6661 2.53505 26.8202C2.57873 26.9743 2.66115 27.1146 2.77447 27.2278C2.88778 27.341 3.0282 27.4232 3.18234 27.4667C3.33647 27.5102 3.49918 27.5135 3.65496 27.4763L9.40621 26.1063C10.1052 25.94 10.7443 25.583 11.2525 25.0751L26.19 10.1376C27.0287 9.2988 27.4999 8.16122 27.4999 6.97505C27.4999 5.78889 27.0287 4.65131 26.19 3.81255V3.81005ZM21.19 5.13505C21.4313 4.89375 21.7177 4.70234 22.033 4.57174C22.3483 4.44115 22.6862 4.37393 23.0275 4.37393C23.3687 4.37393 23.7066 4.44115 24.0219 4.57174C24.3372 4.70234 24.6236 4.89375 24.865 5.13505C25.1063 5.37636 25.2977 5.66283 25.4283 5.9781C25.5589 6.29338 25.6261 6.6313 25.6261 6.97255C25.6261 7.31381 25.5589 7.65172 25.4283 7.967C25.2977 8.28228 25.1063 8.56875 24.865 8.81005L23.75 9.9238L20.075 6.25005L21.19 5.1363V5.13505ZM18.75 7.57755L22.425 11.2501L9.92496 23.7501C9.66246 24.0126 9.33246 24.1963 8.97121 24.2826L4.70121 25.3001L5.71746 21.0301C5.80371 20.6676 5.98871 20.3376 6.25121 20.0751L18.75 7.57505V7.57755Z" fill="white"/>
</svg>
