<svg width="21" height="25" viewBox="0 0 21 25" fill="none" xmlns="http://www.w3.org/2000/svg">
<path d="M19.7344 10.6049L2.85 0.275976C2.56534 0.101663 2.2393 0.00650182 1.90556 0.0003215C1.57182 -0.00585882 1.24249 0.0771652 0.951563 0.240819C0.66341 0.401932 0.423371 0.636888 0.25613 0.921528C0.0888884 1.20617 0.000481474 1.53022 0 1.86035V22.5158C0.00217121 23.011 0.200899 23.4851 0.552497 23.8339C0.904094 24.1826 1.37979 24.3775 1.875 24.3756C2.22065 24.3754 2.55959 24.2802 2.85469 24.1002L19.7344 13.7713C20.0057 13.6059 20.2299 13.3735 20.3855 13.0965C20.5411 12.8194 20.6228 12.507 20.6228 12.1893C20.6228 11.8715 20.5411 11.5591 20.3855 11.282C20.2299 11.005 20.0057 10.7726 19.7344 10.6072V10.6049ZM1.875 22.4936V1.87558L18.7301 12.1881L1.875 22.4936Z" fill="white"/>
</svg>
