<svg width="18" height="19" viewBox="0 0 18 19" fill="none" xmlns="http://www.w3.org/2000/svg">
<path d="M10.308 9.78656H18V2.09606C17.988 0.393558 16.9935 -0.0159419 15.7905 1.18856L14.0595 2.92556C12.5344 1.72719 10.6502 1.07727 8.71055 1.08056C6.38555 1.08056 4.19705 1.98656 2.55455 3.63206C1.74174 4.43713 1.09727 5.39592 0.658702 6.45255C0.220134 7.50918 -0.00376582 8.64253 4.79117e-05 9.78656C4.79117e-05 12.1161 0.906048 14.3046 2.55155 15.9471C3.35839 16.7587 4.31817 17.4022 5.37536 17.8404C6.43254 18.2786 7.56614 18.5028 8.71055 18.5001C11.0355 18.5001 13.224 17.5926 14.8695 15.9456C15.3135 15.5001 15.7065 15.0141 16.0395 14.4981C16.2892 14.1094 16.3742 13.6375 16.2759 13.1861C16.1776 12.7348 15.904 12.3409 15.5153 12.0913C15.1266 11.8417 14.6547 11.7567 14.2033 11.855C13.752 11.9533 13.3582 12.2269 13.1085 12.6156C12.909 12.9261 12.6705 13.2156 12.4065 13.4856C11.9221 13.9721 11.346 14.3578 10.7116 14.6204C10.0773 14.883 9.39713 15.0173 8.71055 15.0156C8.0239 15.0177 7.34366 14.8836 6.70922 14.6209C6.07478 14.3583 5.49877 13.9724 5.01455 13.4856C4.52793 13.0009 4.14217 12.4245 3.87957 11.7899C3.61696 11.1553 3.4827 10.4749 3.48455 9.78806C3.48455 8.39306 4.02755 7.08056 5.01455 6.09656C5.49895 5.60985 6.07496 5.22392 6.70934 4.96106C7.34371 4.69819 8.02387 4.5636 8.71055 4.56506C9.74255 4.56506 10.7295 4.86656 11.574 5.42306L9.40205 7.59956C8.19755 8.80256 8.60705 9.78656 10.308 9.78656Z" fill="white"/>
</svg>
