<svg width="18" height="19" viewBox="0 0 18 19" fill="none" xmlns="http://www.w3.org/2000/svg">
<path d="M3.5452 5.16298C3.43895 5.13488 3.34018 5.08376 3.25587 5.01326C3.17156 4.94275 3.10378 4.85458 3.05732 4.75498C3.01086 4.65538 2.98685 4.54679 2.98701 4.43688C2.98716 4.32698 3.01146 4.21845 3.0582 4.11898L4.7182 0.583983C4.77866 0.454532 4.87484 0.345044 4.99542 0.268403C5.116 0.191762 5.25596 0.151158 5.39884 0.151368C5.54171 0.151578 5.68155 0.192594 5.80191 0.269589C5.92226 0.346584 6.01812 0.456355 6.0782 0.585983L6.8102 2.15498C6.83634 2.1445 6.86305 2.13548 6.8902 2.12798C8.61721 1.66545 10.4484 1.78364 12.1016 2.46434C13.7548 3.14505 15.1383 4.35048 16.039 5.89493C16.9396 7.43938 17.3074 9.23713 17.0857 11.0112C16.864 12.7853 16.0651 14.4372 14.8121 15.7125C13.559 16.9878 11.9214 17.8157 10.1515 18.0686C8.3816 18.3215 6.57765 17.9854 5.01759 17.1121C3.45753 16.2387 2.22793 14.8766 1.51823 13.2357C0.808542 11.5947 0.658139 9.76586 1.0902 8.03098C1.1141 7.93538 1.1566 7.84542 1.21526 7.76624C1.27393 7.68706 1.34762 7.62022 1.43212 7.56952C1.51662 7.51881 1.61028 7.48525 1.70775 7.47075C1.80522 7.45625 1.9046 7.46108 2.0002 7.48498C2.0958 7.50888 2.18576 7.55138 2.26494 7.61005C2.34412 7.66871 2.41097 7.7424 2.46167 7.8269C2.51237 7.9114 2.54593 8.00506 2.56043 8.10254C2.57494 8.20001 2.5701 8.29938 2.5462 8.39498C2.19582 9.80312 2.31563 11.2872 2.88737 12.6209C3.4591 13.9546 4.45138 15.0647 5.71284 15.7818C6.97431 16.499 8.43573 16.7838 9.87419 16.5929C11.3126 16.4021 12.6492 15.7459 13.68 14.7246C14.7107 13.7033 15.3792 12.3728 15.5833 10.9362C15.7874 9.49954 15.516 8.03557 14.8105 6.76755C14.105 5.49953 13.0042 4.49707 11.6758 3.91307C10.3474 3.32907 8.8645 3.19559 7.4532 3.53298L8.1932 5.11598C8.25378 5.24527 8.27619 5.38916 8.25782 5.53074C8.23944 5.67233 8.18103 5.80573 8.08945 5.91526C7.99787 6.0248 7.87694 6.10592 7.74085 6.14909C7.60476 6.19227 7.45917 6.1957 7.3212 6.15898L3.5452 5.16298Z" fill="white"/>
</svg>
