<svg width="12" height="17" viewBox="0 0 12 17" fill="none" xmlns="http://www.w3.org/2000/svg">
<path d="M1.15567 5.66669H10.8432L10.264 14.9375C10.2375 15.3607 10.0507 15.7578 9.74171 16.0481C9.43269 16.3384 9.02465 16.5 8.60067 16.5H3.399C2.97502 16.5 2.56698 16.3384 2.25796 16.0481C1.94894 15.7578 1.76217 15.3607 1.73567 14.9375L1.15567 5.66669ZM11.8332 3.16669V4.83335H0.166504V3.16669H2.6665V2.33335C2.6665 1.89133 2.8421 1.4674 3.15466 1.15484C3.46722 0.842282 3.89114 0.666687 4.33317 0.666687H7.6665C8.10853 0.666687 8.53245 0.842282 8.84502 1.15484C9.15758 1.4674 9.33317 1.89133 9.33317 2.33335V3.16669H11.8332ZM4.33317 3.16669H7.6665V2.33335H4.33317V3.16669Z" fill="black"/>
</svg>
