<svg width="25" height="25" viewBox="0 0 25 25" fill="none" xmlns="http://www.w3.org/2000/svg">
<path d="M10 4.26829H15C15 3.62142 14.7366 3.00105 14.2678 2.54364C13.7989 2.08624 13.163 1.82927 12.5 1.82927C11.837 1.82927 11.2011 2.08624 10.7322 2.54364C10.2634 3.00105 10 3.62142 10 4.26829ZM8.125 4.26829C8.125 3.70777 8.23816 3.15274 8.45803 2.63489C8.67789 2.11704 9.00015 1.6465 9.40641 1.25015C9.81266 0.853806 10.295 0.539406 10.8258 0.324904C11.3566 0.110403 11.9255 0 12.5 0C13.0745 0 13.6434 0.110403 14.1742 0.324904C14.705 0.539406 15.1873 0.853806 15.5936 1.25015C15.9998 1.6465 16.3221 2.11704 16.542 2.63489C16.7618 3.15274 16.875 3.70777 16.875 4.26829H24.0625C24.3111 4.26829 24.5496 4.36466 24.7254 4.53618C24.9012 4.70771 25 4.94035 25 5.18293C25 5.4255 24.9012 5.65814 24.7254 5.82967C24.5496 6.0012 24.3111 6.09756 24.0625 6.09756H22.4125L20.95 20.8671C20.8378 21.9988 20.2976 23.0491 19.4346 23.8132C18.5716 24.5773 17.4479 25.0004 16.2825 25H8.7175C7.55233 25.0001 6.42888 24.5769 5.56619 23.8128C4.7035 23.0487 4.16342 21.9985 4.05125 20.8671L2.5875 6.09756H0.9375C0.68886 6.09756 0.450403 6.0012 0.274587 5.82967C0.0987719 5.65814 0 5.4255 0 5.18293C0 4.94035 0.0987719 4.70771 0.274587 4.53618C0.450403 4.36466 0.68886 4.26829 0.9375 4.26829H8.125ZM10.625 10.061C10.625 9.8184 10.5262 9.58576 10.3504 9.41423C10.1746 9.24271 9.93614 9.14634 9.6875 9.14634C9.43886 9.14634 9.2004 9.24271 9.02459 9.41423C8.84877 9.58576 8.75 9.8184 8.75 10.061V19.2073C8.75 19.4499 8.84877 19.6825 9.02459 19.8541C9.2004 20.0256 9.43886 20.122 9.6875 20.122C9.93614 20.122 10.1746 20.0256 10.3504 19.8541C10.5262 19.6825 10.625 19.4499 10.625 19.2073V10.061ZM15.3125 9.14634C15.5611 9.14634 15.7996 9.24271 15.9754 9.41423C16.1512 9.58576 16.25 9.8184 16.25 10.061V19.2073C16.25 19.4499 16.1512 19.6825 15.9754 19.8541C15.7996 20.0256 15.5611 20.122 15.3125 20.122C15.0639 20.122 14.8254 20.0256 14.6496 19.8541C14.4738 19.6825 14.375 19.4499 14.375 19.2073V10.061C14.375 9.8184 14.4738 9.58576 14.6496 9.41423C14.8254 9.24271 15.0639 9.14634 15.3125 9.14634ZM5.9175 20.6915C5.98492 21.3703 6.30906 22.0003 6.82671 22.4587C7.34436 22.917 8.01843 23.1709 8.7175 23.1707H16.2825C16.9816 23.1709 17.6556 22.917 18.1733 22.4587C18.6909 22.0003 19.0151 21.3703 19.0825 20.6915L20.53 6.09756H4.47L5.9175 20.6915Z" fill="white"/>
</svg>
